{
    "beatsPerMeasure": 4,
    "beatDivision": 3,
    "horizontalScaleFactor": 0.54,
    "projectName": "Dance of the Maidens - Alexander Borodin.json",
    "midiTracks": [
        {
            "volume": 100,
            "blocks": [{
                "notes": [
                    {
                        "durationTicks": 960,
                        "startTick": 1920,
                        "pitch": 81,
                        "velocity": 35
                    },
                    {
                        "durationTicks": 960,
                        "startTick": 2880,
                        "pitch": 80,
                        "velocity": 35
                    },
                    {
                        "durationTicks": 3840,
                        "startTick": 3840,
                        "pitch": 79,
                        "velocity": 35
                    },
                    {
                        "durationTicks": 1920,
                        "startTick": 7680,
                        "pitch": 78,
                        "velocity": 35
                    },
                    {
                        "durationTicks": 960,
                        "startTick": 9600,
                        "pitch": 77,
                        "velocity": 35
                    },
                    {
                        "durationTicks": 960,
                        "startTick": 10560,
                        "pitch": 76,
                        "velocity": 35
                    },
                    {
                        "durationTicks": 1920,
                        "startTick": 11520,
                        "pitch": 75,
                        "velocity": 35
                    },
                    {
                        "durationTicks": 1920,
                        "startTick": 13440,
                        "pitch": 74,
                        "velocity": 35
                    },
                    {
                        "durationTicks": 1920,
                        "startTick": 15360,
                        "pitch": 73,
                        "velocity": 35
                    }
                ],
                "startTick": 0
            }],
            "channel": 0,
            "name": "oboe",
            "instrument": {
                "name": "OBOE",
                "className": "InstrumentalInstrument"
            }
        },
        {
            "volume": 100,
            "blocks": [{
                "notes": [
                    {
                        "durationTicks": 480,
                        "startTick": 3840,
                        "pitch": 83,
                        "velocity": 50
                    },
                    {
                        "durationTicks": 480,
                        "startTick": 4320,
                        "pitch": 85,
                        "velocity": 50
                    },
                    {
                        "durationTicks": 960,
                        "startTick": 4800,
                        "pitch": 86,
                        "velocity": 50
                    },
                    {
                        "durationTicks": 320,
                        "startTick": 5760,
                        "pitch": 90,
                        "velocity": 50
                    },
                    {
                        "durationTicks": 320,
                        "startTick": 6080,
                        "pitch": 88,
                        "velocity": 50
                    },
                    {
                        "durationTicks": 320,
                        "startTick": 6080,
                        "pitch": 88,
                        "velocity": 50
                    },
                    {
                        "durationTicks": 320,
                        "startTick": 6400,
                        "pitch": 86,
                        "velocity": 50
                    },
                    {
                        "durationTicks": 960,
                        "startTick": 6720,
                        "pitch": 85,
                        "velocity": 50
                    },
                    {
                        "durationTicks": 480,
                        "startTick": 7680,
                        "pitch": 86,
                        "velocity": 50
                    },
                    {
                        "durationTicks": 240,
                        "startTick": 8160,
                        "pitch": 85,
                        "velocity": 50
                    },
                    {
                        "durationTicks": 240,
                        "startTick": 8400,
                        "pitch": 83,
                        "velocity": 50
                    },
                    {
                        "durationTicks": 960,
                        "startTick": 8640,
                        "pitch": 81,
                        "velocity": 50
                    },
                    {
                        "durationTicks": 480,
                        "startTick": 11520,
                        "pitch": 78,
                        "velocity": 50
                    },
                    {
                        "durationTicks": 480,
                        "startTick": 12000,
                        "pitch": 80,
                        "velocity": 50
                    },
                    {
                        "durationTicks": 960,
                        "startTick": 12480,
                        "pitch": 81,
                        "velocity": 50
                    },
                    {
                        "durationTicks": 320,
                        "startTick": 13440,
                        "pitch": 85,
                        "velocity": 50
                    },
                    {
                        "durationTicks": 320,
                        "startTick": 13760,
                        "pitch": 83,
                        "velocity": 50
                    },
                    {
                        "durationTicks": 320,
                        "startTick": 14080,
                        "pitch": 81,
                        "velocity": 50
                    },
                    {
                        "durationTicks": 960,
                        "startTick": 14400,
                        "pitch": 80,
                        "velocity": 50
                    },
                    {
                        "durationTicks": 1920,
                        "startTick": 15360,
                        "pitch": 81,
                        "velocity": 50
                    }
                ],
                "startTick": 0
            }],
            "channel": 1,
            "name": "flute",
            "instrument": {
                "name": "FLUTE",
                "className": "InstrumentalInstrument"
            }
        }
    ],
    "player": {
        "positionTick": 4219,
        "beatsPerMinute": 60,
        "availableChannels": [
            2,
            3,
            4,
            5,
            6,
            7,
            8,
            10,
            11,
            12,
            13,
            14,
            15
        ]
    }
}